<?xml version="1.0" encoding="UTF-8"?>
<svg width="512" height="512" viewBox="0 0 512 512" fill="none" xmlns="http://www.w3.org/2000/svg">
  <rect width="512" height="512" rx="256" fill="#1976d2"/>
  <path d="M384 352H128c-8.8 0-16-7.2-16-16V176c0-8.8 7.2-16 16-16h256c8.8 0 16 7.2 16 16v160c0 8.8-7.2 16-16 16z" fill="white"/>
  <path d="M256 208c-26.5 0-48 21.5-48 48s21.5 48 48 48 48-21.5 48-48-21.5-48-48-48zm0 80c-17.6 0-32-14.4-32-32s14.4-32 32-32 32 14.4 32 32-14.4 32-32 32z" fill="#1976d2"/>
</svg> 